<?xml version="1.0" encoding="UTF-8"?>
<svg id="Layer_1" data-name="Layer 1" xmlns="http://www.w3.org/2000/svg" version="1.1" viewBox="0 0 509.8 452.1">
  <defs>
    <style>
      .cls-1 {
        fill: #010000;
      }

      .cls-1, .cls-2 {
        stroke-width: 0px;
      }

      .cls-2 {
        fill: #ec5886;
      }
    </style>
  </defs>
  <path class="cls-1" d="M437.1,202.6c20.6-28.9,39.1-59,46.6-94.3,7.3-34.7-1.6-63.6-32.3-83.9-.7-.5-1.2-1.2-1.8-1.8-.9.2-1.5-.2-2-1-16.1-8.8-32.7-16.1-51.3-17.4-4.8-.7-9.7-.1-14.5-.3-6.4.1-12.8.4-19,2.1-23.9,6.4-43.4,20.2-61.4,36.4-19.6,17.6-36.6,37.5-51.3,59.4.2.4.5.7.7,1.1-4.3,6.7-8.6,13.3-13.3,20.7-2.9-10.5-5.8-20.1-10.3-29.1-17.2-34.2-44.4-57.5-78.9-73-13.6-6.1-27.9-9.2-42.5-11.6,1.7-.2,3.4-.2,5.1-.3-2-.4-4-.7-5.9-1.1-15.5-1.3-30.9-.5-45.7,4.7C26,24.8,3.3,59.1,3.8,91.8c.1,0,.2,0,.4,0,0,6.5,0,13,0,19.4.7,10.2,3.2,20,6.8,29.5,10.1,27,26.9,49.7,45.6,71.3,28.1,32.6,60.6,60.8,91.5,90.6,23.6,22.8,47.2,45.7,63.7,74.6,11.4,20.1,18,40.9,11.5,64.2-.8,3,.6,5,2.1,7.2h5.3c3.5-6.7,6.4-13.7,11-19.8,23.3-31.7,51-59.5,77.8-88.2,41.3-44.3,82.5-88.6,117.7-138ZM242.7,410.3s0,0,0,0h0c-2,2.8-4.1,5.6-7.1,9.7-1.4-19-7.7-34.9-16.6-49.8-11.3-19-25.7-35.7-40.8-51.7-27.7-29.2-58.3-55.5-86.8-83.9-24.1-24-47.1-48.8-62.8-79.3-15.4-29.8-20.9-60.7-6.9-92.8,8.2-18.8,21.7-32.1,41.8-38.2,13.5-5,27.5-5.7,41.4-3.8,52.3,7.2,91.2,34,115,81.6,5.5,10.9,7.9,22.7,9.3,34.8.3,3,.7,5.7,4.2,6.6,3.6.9,4.9-1.7,6.4-4.2,4.6-7.6,8.6-15.5,14.2-22.3h0c0-.3.1-.5.2-.8,0,0-.1-.4-.1-.4l.4-.2c22-32.7,46.4-63.1,80.2-84.6,18.5-11.8,38.5-18.7,60.9-16.8,26,3.4,49.2,13.1,66.6,33.1,15.2,17.5,16.1,38.4,11.3,60-7,31.1-22.9,57.9-40.7,83.7-35.7,51.6-78.4,97.3-121.2,142.9-23.4,25-46.8,50.1-69,76.3Z"/>
  <path class="cls-1" d="M3.8,91.8c0,.4,0,.9,0,1.3.2,6-.5,12.1.4,18.1,0-6.5,0-13,0-19.4-.1,0-.2,0-.4,0Z"/>
  <path class="cls-2" d="M504.3,77.8c-6.9-29.4-28.5-44.8-54.7-55.3,0,0,0,0,0,0,0,0,0,0,0,0,16.2,8.3,27.1,21.3,33.5,38.3,4.4,11.8,5,24,3.7,36.3-3.2,29.6-16.3,55.4-31.4,80.3-16.9,28.1-37.3,53.8-58.2,78.9-14.8,17.7-30.3,34.9-45.9,51.9-23.6,25.6-47.7,50.8-71.2,76.5-11.8,12.8-23.3,25.9-33.7,39.9-1.2,1.7-2.2,3.8-4.7,4.1,1.9,2.7-.2,5.6.1,8.7,2.9-4.1,5.3-8,8.2-11.7,21.4-27.4,46.6-51.2,71.2-75.7,42.7-42.5,85.8-84.6,123.5-131.8,22-27.5,42.4-56.1,54.5-89.7,5.9-16.5,9.3-33.4,5.2-50.7Z"/>
  <path class="cls-2" d="M246.3,424.7c10.5-14,22-27,33.7-39.9,23.5-25.7,47.6-50.9,71.2-76.5,15.7-17,31.2-34.2,45.9-51.9,20.9-25.1,41.3-50.8,58.2-78.9,15-25,28.2-50.7,31.4-80.3,1.3-12.3.7-24.5-3.7-36.3-6.4-17-17.3-30-33.5-38.3,0,0,0,0,0,0,.6.6,1.1,1.3,1.8,1.8,30.7,20.3,39.6,49.3,32.3,83.9-7.5,35.3-26,65.4-46.6,94.3-35.2,49.4-76.4,93.7-117.7,138-26.7,28.7-54.4,56.5-77.8,88.2,2.5-.3,3.4-2.4,4.7-4.1Z"/>
  <path class="cls-2" d="M449.6,22.5s0,0,0,0c-.3-1-1.1-1.1-2-1h0s0,0,0,0c.5.6,1.4.4,2,1Z"/>
  <path class="cls-2" d="M449.5,22.5s0,0,0,0c0,0,0,0,0,0-.5-.6-1.5-.4-2-1,0,0,0,0,0,0,.4.8,1,1.2,2,1Z"/>
  <path class="cls-2" d="M449.6,22.5s0,0,0,0c0,0,0,0,0,0,0,0,0,0,0,0Z"/>
  <path class="cls-2" d="M449.6,22.5s0,0,0,0h0s0,0,0,0Z"/>
  <path class="cls-2" d="M449.5,22.5h0s0,0,0,0c0,0,0,0,0,0Z"/>
  <path class="cls-2" d="M449.5,22.5s0,0,0,0c0,0,0,0,0,0,0,0,0,0,0,0Z"/>
  <path class="cls-2" d="M473.6,107.4c4.8-21.6,3.9-42.5-11.3-60-17.4-20.1-40.6-29.8-66.6-33.1.5.4,1,.8,1.7,1.3-28.1,5.8-50.9,21-71.8,39.6-26.6,23.7-47.9,51.8-67.5,82.2-1.9-7.1-1.2-14.1-3.9-20.4,0,0,0,0,0,0h0c-5.6,6.9-9.7,14.8-14.2,22.3-1.5,2.5-2.8,5.1-6.4,4.2-3.5-.8-3.9-3.6-4.2-6.6-1.4-12.1-3.8-23.9-9.3-34.8-23.8-47.6-62.7-74.4-115-81.6-13.9-1.9-28-1.3-41.4,3.8,2.4,1.6-.4,2-.8,2.4-28.5,27-34.9,60.2-25.8,96.8,8.2,33.1,28.2,59.8,49.6,85.3,29.8,35.5,64,66.7,95.2,100.8,21.8,23.7,42.8,48,55.1,78.4,2.9,7.1,4.9,14.4,5.8,22.1,0,0,0,0,0,0,22.1-26.2,45.5-51.2,69-76.3,42.8-45.6,85.5-91.3,121.2-142.9,17.9-25.8,33.8-52.6,40.7-83.7Z"/>
  <path class="cls-2" d="M181.8,309.8c-31.3-34.1-65.5-65.3-95.2-100.8-21.4-25.6-41.4-52.3-49.6-85.3-9.1-36.7-2.7-69.8,25.8-96.8.4-.4,3.2-.8.8-2.4-4.5,3.9-9.1,7.8-12.6,12.7-17,23.7-22.5,49.9-17.4,78.4,4.6,25.9,17.3,48,32.2,69.1,17.1,24.2,37.5,45.6,57.7,67.1,15.3,16.3,31.7,31.7,47,48.1,14.9,16,29.9,32,42.7,49.7,12.4,17.1,23,35.1,27.5,56.1.4,1.7.2,3.6,2.1,4.7-.9-7.6-3-15-5.8-22.1-12.3-30.4-33.3-54.7-55.1-78.4Z"/>
  <path class="cls-2" d="M255.5,117.7c-.2-.5-.8-.6-1.4-.6,0,0,0,0,0,0,2.6,6.3,1.9,13.3,3.9,20.4,19.6-30.4,41-58.5,67.5-82.2,20.9-18.6,43.8-33.8,71.8-39.6-.6-.5-1.1-.9-1.7-1.3-.4.4-.8.7-1.3.8-17.2,3.4-32.5,11.3-46.8,21.1-16.3,11.2-30.9,24.3-44.1,39-17,18.9-32.4,38.9-45.1,59.4"/>
  <path class="cls-2" d="M181.9,39.2c23.4,17.2,40.9,38.9,51.5,66,1.7,4.3,2.6,8.8,4.5,13.9,5.2-5.3,7.6-12,12-17.1,0,0,.1-.2.2-.2-.1-.2-.3-.4-.4-.7-13.8-33.7-37.9-57.9-69.6-74.8-21.7-11.5-44.6-17.9-69.1-16.6,8,1.4,15.9,2.9,23.7,5.4,17.1,5.5,32.9,13.5,47.3,24.1Z"/>
  <path class="cls-1" d="M148.3,21.5c34.5,15.4,61.7,38.7,78.9,73,4.5,9,7.4,18.6,10.3,29.1,4.8-7.4,9.1-14.1,13.3-20.7-.2-.4-.5-.7-.7-1.1,0,0-.1.2-.2.2-4.4,5.2-6.7,11.8-12,17.1-1.8-5.1-2.8-9.6-4.5-13.9-10.7-27.1-28.2-48.8-51.5-66-14.5-10.6-30.2-18.6-47.3-24.1-7.8-2.5-15.7-4-23.7-5.4-1.7,0-3.4.1-5.1.3,14.5,2.5,28.9,5.6,42.5,11.6Z"/>
  <path class="cls-2" d="M254.6,115.8l-.4.2s.1.4.1.4c0,0,0,0,0,0,0-.2.2-.4.2-.6Z"/>
  <path class="cls-2" d="M254.7,116.1v-.4c-.2.2-.3.4-.4.6,0,0,0,0,0,0h0s.4-.2.4-.2Z"/>
</svg>