<?xml version="1.0" encoding="UTF-8"?>
<svg id="Layer_1" data-name="Layer 1" xmlns="http://www.w3.org/2000/svg" version="1.1" viewBox="0 0 500 500">
  <defs>
    <style>
      .cls-1 {
        fill: #010000;
      }

      .cls-1, .cls-2, .cls-3 {
        stroke-width: 0px;
      }

      .cls-2 {
        fill: #ec5886;
      }

      .cls-3 {
        fill: #fff;
      }
    </style>
  </defs>
  <path class="cls-3" d="M80.7,183.2c.5,0,.7-.3.8-.9l2.9-12.9c0-.2,0-.4,0-.7,0-1.2-.8-1.8-2.3-1.8h-37.1l-.4,1.4h7.5l-15.4,55.8h-7.3l-.3,1.4h40.1c1,0,1.8-.3,2.2-.8.4-.5.8-1.2,1.1-2l4-13c.1-.3.2-.5.2-.7v-.4c0-.5-.1-.7-.4-.7-.4,0-.9.6-1.5,1.8-.9,1.9-1.9,3.7-2.9,5.4-1,1.7-2.2,3.3-3.5,4.6-1.4,1.3-3,2.4-4.9,3.2-1.9.8-4.3,1.2-7,1.2h-11.4l7.9-28.8h6.5c1,0,1.8.2,2.4.7.6.4,1,1,1.2,1.8.3.8.4,1.6.5,2.6,0,1,.1,2.1.1,3.3s.2,1.8.7,1.8.7-.5,1-1.4l4.7-17.6c.1-.3.2-.6.2-.8v-.4c0-.5-.2-.8-.5-.8s-.8.4-1,1.3c-.5.9-1,1.9-1.5,2.8-.5,1-1.1,1.8-1.8,2.6-.7.8-1.5,1.4-2.4,1.9-.9.5-1.9.7-3.1.7h-6.5l7.1-25.6h11.1c1.8,0,3.2.4,4.3,1.1,1.1.7,2,1.6,2.7,2.8.7,1.1,1.1,2.3,1.3,3.6.2,1.3.4,2.5.4,3.6s0,.9,0,1.4c0,.4,0,.8-.1,1.2v.3c0,.6.2.9.5.9Z"/>
  <path class="cls-3" d="M121.6,213c-.3,0-.6.2-.8.6-1.8,3.5-3.4,6-4.9,7.6-1.4,1.6-2.6,2.4-3.4,2.4s-1.4-.7-1.4-2.2,0-1.1.2-1.8c.1-.7.4-1.8.8-3.2l3.4-12.2c.5-2,.9-3.4,1-4.3.2-.9.2-1.7.2-2.3,0-2.7-.8-4.5-2.3-5.6-1.5-1.1-3.5-1.7-6-1.7s-3.5.2-4.8.7c-1.3.5-2.5,1-3.5,1.7-1,.7-1.8,1.4-2.4,2.2-.6.8-1.2,1.5-1.7,2.1l1.6-5.8h-13.1l-.3,1.4h5.6l-9,32.8h7.4l5.9-21.3c.4-1.4,1-2.8,1.9-4.2.9-1.4,1.9-2.7,3-3.8,1.1-1.1,2.2-2.1,3.4-2.8,1.2-.7,2.2-1.1,3.2-1.1s1.9.4,2.6,1.1c.8.8,1.1,1.9,1.1,3.4s-.1,1.8-.4,2.9c-.2,1.1-.6,2.5-1,4.3l-2.8,10.2c-.5,1.8-.8,3.1-.9,4-.1.8-.2,1.6-.2,2.2,0,2.2.5,3.7,1.6,4.8,1.1,1,2.5,1.5,4.4,1.5s2.7-.3,3.8-.9c1.1-.6,2.1-1.4,3-2.5.9-1.1,1.8-2.4,2.6-3.8.8-1.5,1.7-3.1,2.7-4.9.1-.3.2-.5.2-.6,0-.5-.2-.8-.7-.8Z"/>
  <path class="cls-3" d="M171.9,197.4c0,.7,0,1.5-.2,2.3-.1.8-.4,1.7-.6,2.7l-3.9,13.8c-.3,1-.5,1.8-.6,2.5-.1.7-.2,1.4-.2,2.3s.2,2,.6,2.8c.4.7.9,1.3,1.5,1.8.6.4,1.3.7,2.1.9.8.2,1.7.3,2.6.3,1.6,0,3-.4,4.2-1.1,1.2-.7,2.3-1.7,3.3-2.8s1.9-2.5,2.7-3.9c.8-1.4,1.7-2.9,2.5-4.3.1-.2.2-.4.2-.5,0-.5-.2-.7-.6-.7s-.4.1-.6.4c-1.7,3.1-3.4,5.6-5,7.6-1.6,2-3,3-4.4,3s-1.8-.8-1.8-2.4,0-.8,0-1.3c0-.5.2-1.2.4-2l4.5-16.5c.3-1.1.5-2.3.5-3.6s-.1-2.1-.4-3c-.3-1-.7-1.9-1.4-2.6-.6-.7-1.4-1.3-2.4-1.8-1-.5-2.3-.7-3.7-.7s-3.1.2-4.4.6c-1.3.4-2.5.9-3.5,1.6-1,.6-2,1.4-2.8,2.2-.8.8-1.6,1.6-2.2,2.4,0-2.4-.7-4.1-2-5.2-1.3-1.1-3.3-1.6-5.8-1.6s-3.3.2-4.7.6c-1.4.4-2.6.9-3.6,1.6-1,.6-2,1.4-2.8,2.2-.8.8-1.6,1.7-2.2,2.6l1.7-6h-13.1l-.4,1.4h5.7l-9.1,32.8h7.4l6.1-22.2c.3-1,.9-2.1,1.8-3.4.8-1.3,1.8-2.4,2.9-3.5,1.1-1.1,2.2-2,3.4-2.8,1.2-.8,2.4-1.1,3.5-1.1s2,.4,2.6,1.2c.6.8.9,1.9.9,3.2s0,1.5,0,2.3c0,.8-.2,1.7-.5,2.7l-6.4,23.5h7.5l6-22c.3-1.2.9-2.4,1.6-3.7.8-1.3,1.6-2.5,2.7-3.6,1.1-1.1,2.2-2,3.4-2.7,1.2-.7,2.4-1,3.7-1,2.4,0,3.6,1.6,3.6,4.8Z"/>
  <path class="cls-3" d="M227.4,191.3h-7.9l-1.9,6.6c-.6-2.4-1.7-4.3-3.4-5.6-1.7-1.3-3.9-2-6.7-2s-4.9.6-7.3,1.8c-2.4,1.2-4.6,2.7-6.4,4.6-1.9,1.9-3.4,4.1-4.6,6.6-1.2,2.5-1.7,5.1-1.7,7.8s.3,3.7.9,5.5c.6,1.8,1.4,3.5,2.5,4.9,1.1,1.4,2.5,2.6,4.1,3.5,1.6.9,3.4,1.4,5.5,1.4s2.6-.2,3.8-.6c1.2-.4,2.3-.9,3.3-1.5,1-.6,1.9-1.3,2.6-2,.8-.7,1.4-1.4,1.9-2.1,0,2,.4,3.6,1.2,4.6.8,1,2.2,1.6,4.3,1.6s3.3-.3,4.6-.9c1.3-.6,2.5-1.4,3.6-2.4,1.1-1,2-2.2,2.9-3.6.9-1.4,1.7-2.9,2.5-4.5.1-.2.2-.3.3-.5,0-.2,0-.3,0-.5,0-.4-.2-.6-.6-.6s-.6.2-.9.7c-1.8,3.5-3.4,6-5,7.5-1.6,1.4-2.9,2.2-4,2.2s-.9-.1-1.3-.4c-.3-.3-.5-.7-.5-1.4s.1-1.4.3-2.1l7.9-28.7ZM216.2,203.5l-3,9.9c-.5,1.5-.9,2.9-1.4,4.1-.5,1.3-1.2,2.3-2.1,3.3-1.2,1.2-2.6,2.2-4.2,3-1.7.8-3.1,1.2-4.5,1.2s-3.1-.6-3.9-1.8c-.8-1.2-1.2-3.1-1.2-5.8s.2-4.1.6-6.3c.4-2.2,1-4.4,1.7-6.5.7-2.1,1.4-4,2.3-5.8.8-1.8,1.6-3.1,2.3-4,.8-1,1.8-1.8,2.8-2.3,1.1-.5,2.1-.8,3.2-.8s1.9.2,2.9.7c.9.5,1.8,1.1,2.5,2,.7.8,1.3,1.8,1.7,2.9.4,1.1.7,2.3.7,3.5s-.1,2-.4,2.7Z"/>
  <path class="cls-3" d="M246.6,196.1l1.3-4.8h-12.5l-.4,1.5h4.9l-9,32.7h7.4l6.6-23.6c.2-.9.8-2,1.6-3.1.8-1.2,1.8-2.3,2.8-3.3,1.1-1,2.2-1.9,3.5-2.6,1.3-.7,2.5-1,3.6-1h.6c-.5.3-1.1.8-1.6,1.6-.6.8-.9,1.7-.9,2.7s.5,2.6,1.4,3.5c.9.9,2.2,1.3,3.7,1.3s2.1-.4,3.2-1.1c1.1-.7,1.6-2,1.6-3.8s-.2-2-.6-2.7c-.4-.7-.9-1.3-1.6-1.8-.6-.4-1.4-.8-2.2-1-.8-.2-1.7-.3-2.6-.3-1.5,0-2.7.2-3.8.5-1.1.3-2.1.8-3,1.4-.9.6-1.6,1.2-2.3,1.9-.6.7-1.3,1.4-1.8,2Z"/>
  <path class="cls-3" d="M274,218.2c0-1.6.4-3.8,1.1-6.6.8-2.8,1.7-6,2.7-9.5.6-2,1.2-3.7,1.9-5,.7-1.3,1.5-2.4,2.4-3.2.9-.8,1.8-1.3,2.9-1.7,1.1-.3,2.3-.5,3.7-.5s1.9.1,2.7.3c.7.2,1.3.4,1.7.7.4.3.8.6,1,.9.2.3.3.5.3.7s-.1.4-.4.5c-.6.4-1.1.9-1.4,1.5-.3.6-.5,1.3-.5,2,0,1.2.4,2,1.2,2.6.8.6,1.7.9,2.7.9s2-.3,2.8-1c.8-.7,1.3-1.7,1.3-3s-.4-2.1-1.1-3.1c-.7-.9-1.7-1.7-2.8-2.4-1.1-.7-2.4-1.2-3.7-1.5-1.4-.3-2.7-.5-4-.5-2.3,0-4.8.5-7.5,1.4-2.6,1-5.1,2.4-7.3,4.2-2.2,1.9-4.1,4.1-5.5,6.8-1.5,2.7-2.2,5.7-2.2,9.1s.4,4,1.1,5.8c.7,1.8,1.7,3.3,3,4.6,1.3,1.3,2.8,2.3,4.6,3.1,1.8.7,3.8,1.1,5.8,1.1,4.1,0,7.5-1,10.2-2.9,2.7-1.9,4.7-4.4,6.1-7.4.1-.3.2-.6.2-.6,0-.4-.2-.6-.5-.6s-.7.3-1,.8c-1.7,3.1-3.8,5.5-6.4,7-2.6,1.5-5.4,2.3-8.3,2.3s-2.4-.2-3.3-.6c-.9-.4-1.6-.9-2.1-1.6-.5-.7-.9-1.4-1.1-2.2-.2-.8-.3-1.6-.3-2.4Z"/>
  <path class="cls-3" d="M341.9,191.3h-7.9l-1.9,6.6c-.6-2.4-1.7-4.3-3.4-5.6-1.7-1.3-3.9-2-6.7-2s-4.9.6-7.3,1.8c-2.4,1.2-4.6,2.7-6.4,4.6-1.9,1.9-3.4,4.1-4.6,6.6-1.2,2.5-1.7,5.1-1.7,7.8s.3,3.7.9,5.5c.6,1.8,1.4,3.5,2.5,4.9,1.1,1.4,2.5,2.6,4.1,3.5,1.6.9,3.4,1.4,5.5,1.4s2.6-.2,3.8-.6c1.2-.4,2.3-.9,3.3-1.5,1-.6,1.9-1.3,2.6-2,.8-.7,1.4-1.4,1.9-2.1,0,2,.4,3.6,1.2,4.6.8,1,2.2,1.6,4.3,1.6s3.3-.3,4.6-.9c1.3-.6,2.5-1.4,3.6-2.4,1.1-1,2-2.2,2.9-3.6.9-1.4,1.7-2.9,2.5-4.5.1-.2.2-.3.3-.5,0-.2,0-.3,0-.5,0-.4-.2-.6-.6-.6s-.6.2-.9.7c-1.8,3.5-3.4,6-5,7.5-1.6,1.4-2.9,2.2-4,2.2s-.9-.1-1.3-.4c-.3-.3-.5-.7-.5-1.4s.1-1.4.3-2.1l7.9-28.7ZM330.6,203.5l-3,9.9c-.5,1.5-.9,2.9-1.4,4.1-.5,1.3-1.2,2.3-2.1,3.3-1.2,1.2-2.6,2.2-4.2,3-1.7.8-3.1,1.2-4.5,1.2s-3.1-.6-3.9-1.8c-.8-1.2-1.2-3.1-1.2-5.8s.2-4.1.6-6.3c.4-2.2,1-4.4,1.7-6.5.7-2.1,1.4-4,2.3-5.8.8-1.8,1.6-3.1,2.3-4,.8-1,1.8-1.8,2.8-2.3,1.1-.5,2.1-.8,3.2-.8s1.9.2,2.9.7c.9.5,1.8,1.1,2.5,2,.7.8,1.3,1.8,1.7,2.9.4,1.1.7,2.3.7,3.5s-.1,2-.4,2.7Z"/>
  <path class="cls-3" d="M387.9,213c-.3,0-.6.2-.8.6-1.8,3.5-3.4,6-4.9,7.6-1.4,1.6-2.6,2.4-3.4,2.4s-1.4-.7-1.4-2.2,0-1.1.2-1.8c.1-.7.4-1.8.8-3.2l3.4-12.2c.5-2,.9-3.4,1-4.3.2-.9.2-1.7.2-2.3,0-2.7-.8-4.5-2.3-5.6-1.5-1.1-3.5-1.7-6-1.7s-3.5.2-4.8.7c-1.3.5-2.5,1-3.5,1.7-1,.7-1.8,1.4-2.4,2.2-.6.8-1.2,1.5-1.7,2.1l1.6-5.8h-13.1l-.3,1.4h5.6l-9,32.8h7.4l5.9-21.3c.4-1.4,1-2.8,1.9-4.2.9-1.4,1.9-2.7,3-3.8,1.1-1.1,2.2-2.1,3.4-2.8,1.2-.7,2.2-1.1,3.2-1.1s1.9.4,2.6,1.1c.8.8,1.1,1.9,1.1,3.4s-.1,1.8-.4,2.9c-.2,1.1-.6,2.5-1,4.3l-2.8,10.2c-.5,1.8-.8,3.1-.9,4-.1.8-.2,1.6-.2,2.2,0,2.2.5,3.7,1.6,4.8,1.1,1,2.5,1.5,4.4,1.5s2.7-.3,3.8-.9c1.1-.6,2.1-1.4,3-2.5.9-1.1,1.8-2.4,2.6-3.8.8-1.5,1.7-3.1,2.7-4.9.1-.3.2-.5.2-.6,0-.5-.2-.8-.7-.8Z"/>
  <path class="cls-3" d="M400.8,202.3c.4-1.3.9-2.6,1.5-3.9.6-1.3,1.3-2.4,2-3.4.8-1,1.7-1.8,2.8-2.4,1.1-.6,2.4-.9,3.9-.9s3.5.6,5,1.9c1.5,1.3,2.2,3,2.2,5.2s0,.7,0,1.1c0,.4-.1.8-.3,1.3l-3.7,13.3c-.4,1.4-1.1,2.7-2,4-.9,1.3-2,2.4-3.1,3.4-1.2,1-2.4,1.7-3.6,2.3-1.3.5-2.4.8-3.4.8-2,0-3.4-.6-4.1-1.9-.7-1.3-1.1-2.7-1.1-4.2s.2-1.8.5-3.3c.3-1.5.7-3.1,1.1-4.8.4-1.7.9-3.3,1.3-4.9.4-1.6.8-2.8,1.1-3.7ZM420.4,221.4c0-.3,0-.8,0-1.4,0-.7.1-1.3.3-2l14.1-51h-14.4l-.4,1.4h7l-7.5,27.1c-.4-1.2-1.3-2.3-2.8-3.4-1.4-1.1-3.3-1.7-5.5-1.7-3.4,0-6.5.7-9.3,2.2-2.8,1.4-5.1,3.3-7.1,5.5-2,2.2-3.5,4.6-4.6,7.1-1.1,2.6-1.6,5-1.6,7.2,0,4.2,1,7.6,3.1,10.1,2.1,2.6,5.4,3.9,9.9,3.9s2.4-.2,3.6-.6c1.2-.4,2.2-.9,3.2-1.5,1-.6,1.9-1.3,2.7-2,.8-.7,1.5-1.4,2.1-2.1,0,.8.2,1.5.3,2.3.2.8.5,1.4.9,2,.4.6,1,1,1.8,1.4.8.3,1.8.5,3,.5s2.9-.3,4.2-1c1.3-.7,2.4-1.6,3.5-2.6,1.1-1.1,2.1-2.3,3-3.6.9-1.3,1.7-2.5,2.5-3.7.1-.2.2-.4.4-.6.2-.2.2-.4.2-.6,0-.5-.2-.7-.7-.7s-.5.2-.8.5c-2.3,3.5-4.3,5.9-5.9,7.3-1.6,1.4-2.8,2.1-3.7,2.1s-.9-.2-1.2-.6c-.3-.4-.4-.9-.4-1.5Z"/>
  <path class="cls-3" d="M446.8,226.5c2.6,0,5.1-.5,7.6-1.6,2.5-1.1,4.8-2.6,6.8-4.5,2-1.9,3.7-4.3,4.9-7,1.3-2.8,1.9-5.8,1.9-9.2s-1.2-7.7-3.7-10.1c-2.5-2.4-5.7-3.6-9.7-3.6s-5.7.6-8.3,1.9c-2.6,1.3-4.8,2.9-6.7,5-1.9,2.1-3.4,4.5-4.4,7.1-1.1,2.7-1.6,5.4-1.6,8.3s.4,4.4,1.1,6.1,1.8,3.1,3,4.3c1.3,1.1,2.7,2,4.2,2.5,1.6.6,3.2.8,4.8.8ZM444.5,201.4c.4-1.3.8-2.5,1.3-3.6.5-1.2,1.1-2.2,1.9-3.1.8-.9,1.7-1.6,2.8-2.1,1.1-.5,2.4-.8,4-.8,2.5,0,4.2.6,5.2,1.7,1,1.1,1.5,2.6,1.5,4.3s-.1,1.9-.4,3.3c-.3,1.4-.7,3-1.1,4.7-.4,1.7-.9,3.4-1.4,5.1-.5,1.7-1,3.3-1.4,4.6-.9,2.8-2.1,5.1-3.5,6.9-1.5,1.7-3.6,2.6-6.5,2.6s-3.9-.5-5-1.5c-1-1-1.6-2.5-1.6-4.4s.1-2,.4-3.5c.3-1.5.7-3.2,1.1-4.9.4-1.8.9-3.4,1.4-5.1.5-1.7.9-3.1,1.2-4.2Z"/>
  <path class="cls-3" d="M69.7,318.8l-.5,2h27.8l.5-2h-14.5l19.4-24.1h24.9l-3.1,24.1h-13.1l-.5,2h36.6l.6-2h-10.8l10.8-83.2h-1.4l-65.9,83.2h-10.8ZM132.2,256.5l-4.8,36.1h-23.6l28.4-36.1Z"/>
  <path class="cls-3" d="M149.1,318.8l-.6,2h23.8l.5-2h-10.8l21.5-77.9,6.5,79.9h1.6l49.6-80.5-21.8,78.5h-10.8l-.5,2h33.4l.6-2h-10.8l22.1-80h10.8l.5-2h-23.9l-39.6,63.3-5.6-63.3h-23l-.5,2h9.8l-22.1,80h-10.8Z"/>
  <path class="cls-3" d="M408.4,315.2c0-1.2.2-2.6.6-4.2s.9-3.4,1.4-5.3c.5-1.9,1-3.9,1.4-6,.4-2.1.6-4.1.6-6.1,0-4.3-1.3-7.9-3.8-10.9-2.5-3-6.2-4.8-11-5.2,5-.8,9.2-2,12.5-3.6,3.3-1.7,6-3.6,8.1-5.8s3.5-4.6,4.4-7.1c.9-2.6,1.3-5,1.3-7.5,0-4.8-1.7-8.7-5.2-11.9s-9-4.8-16.6-4.8h-33.9l-.5,2.1h10.8l-22.1,79.9h-10.8l-.5,2h33.5l.5-2h-10.8l11.4-40.9h8c1.7,0,3.2.2,4.6.5s2.6.9,3.6,1.8,1.8,2.1,2.3,3.6.8,3.5.8,5.9,0,2.3-.1,3.5-.3,2.7-.6,4.4c-.4,2.2-1,4.6-1.7,7.3s-1.1,5.4-1.1,7.9.8,5.7,2.5,7.1,3.8,2.1,6.5,2.1,3-.2,4.5-.5c1.5-.3,2.9-.7,4.3-1.2s2.5-.9,3.6-1.4,1.8-.9,2.2-1.3c.3-.3.5-.5.5-.8s-.1-.4-.4-.4-.3,0-.6.3c-.9.5-1.9.9-3.1,1.3s-2.2.5-3.2.5c-1.5,0-2.6-.3-3.1-.9-.6-.6-.9-1.4-.9-2.4ZM380.3,275.9l10.4-37.1h9.5c4.4,0,7.6,1.1,9.5,3.3,1.9,2.2,2.9,5.3,2.9,9.3s-.4,5.7-1.1,8.6c-.8,2.9-1.9,5.6-3.6,7.9-1.6,2.4-3.7,4.3-6.3,5.8s-5.6,2.3-9.2,2.3h-12.1Z"/>
  <g>
    <path class="cls-1" d="M353.6,280.7c4.6-6.5,8.8-13.3,10.5-21.2,1.6-7.8-.4-14.3-7.3-18.9-.2-.1-.3-.3-.4-.4-.2,0-.3,0-.4-.2-3.6-2-7.3-3.6-11.5-3.9-1.1-.2-2.2,0-3.3,0-1.4,0-2.9,0-4.3.5-5.4,1.4-9.8,4.5-13.8,8.2-4.4,3.9-8.2,8.4-11.5,13.3,0,0,.1.2.2.2-1,1.5-1.9,3-3,4.7-.6-2.4-1.3-4.5-2.3-6.5-3.9-7.7-10-12.9-17.7-16.4-3-1.4-6.3-2.1-9.5-2.6.4,0,.8,0,1.2,0-.4,0-.9-.2-1.3-.2-3.5-.3-6.9-.1-10.3,1.1-7.5,2.6-12.6,10.3-12.5,17.7,0,0,0,0,0,0,0,1.5,0,2.9,0,4.4.2,2.3.7,4.5,1.5,6.6,2.3,6.1,6.1,11.2,10.2,16,6.3,7.3,13.6,13.7,20.6,20.4,5.3,5.1,10.6,10.3,14.3,16.8,2.6,4.5,4,9.2,2.6,14.4-.2.7.1,1.1.5,1.6h1.2c.8-1.5,1.4-3.1,2.5-4.5,5.2-7.1,11.5-13.4,17.5-19.8,9.3-9.9,18.5-19.9,26.4-31ZM309.9,327.4s0,0,0,0h0c-.5.6-.9,1.3-1.6,2.2-.3-4.3-1.7-7.8-3.7-11.2-2.5-4.3-5.8-8-9.2-11.6-6.2-6.6-13.1-12.5-19.5-18.8-5.4-5.4-10.6-11-14.1-17.8-3.5-6.7-4.7-13.6-1.5-20.8,1.8-4.2,4.9-7.2,9.4-8.6,3-1.1,6.2-1.3,9.3-.8,11.8,1.6,20.5,7.7,25.9,18.3,1.2,2.4,1.8,5.1,2.1,7.8,0,.7.2,1.3.9,1.5.8.2,1.1-.4,1.4-.9,1-1.7,1.9-3.5,3.2-5h0c0,0,0-.1,0-.2,0,0,0,0,0,0h0c4.9-7.4,10.4-14.2,18-19.1,4.2-2.7,8.7-4.2,13.7-3.8,5.9.8,11.1,2.9,15,7.4,3.4,3.9,3.6,8.6,2.5,13.5-1.6,7-5.1,13-9.2,18.8-8,11.6-17.6,21.9-27.2,32.1-5.3,5.6-10.5,11.3-15.5,17.1Z"/>
    <path class="cls-1" d="M256.2,255.8c0,.1,0,.2,0,.3,0,1.3-.1,2.7,0,4.1,0-1.5,0-2.9,0-4.4,0,0,0,0,0,0Z"/>
    <path class="cls-2" d="M368.7,252.6c-1.5-6.6-6.4-10.1-12.3-12.4,0,0,0,0,0,0,0,0,0,0,0,0,3.7,1.9,6.1,4.8,7.5,8.6,1,2.6,1.1,5.4.8,8.2-.7,6.7-3.7,12.4-7,18.1-3.8,6.3-8.4,12.1-13.1,17.7-3.3,4-6.8,7.8-10.3,11.7-5.3,5.8-10.7,11.4-16,17.2-2.6,2.9-5.2,5.8-7.6,9-.3.4-.5.8-1,.9.4.6,0,1.2,0,2,.6-.9,1.2-1.8,1.8-2.6,4.8-6.2,10.5-11.5,16-17,9.6-9.6,19.3-19,27.8-29.6,4.9-6.2,9.5-12.6,12.3-20.2,1.3-3.7,2.1-7.5,1.2-11.4Z"/>
    <path class="cls-2" d="M310.7,330.6c2.4-3.1,4.9-6.1,7.6-9,5.3-5.8,10.7-11.4,16-17.2,3.5-3.8,7-7.7,10.3-11.7,4.7-5.7,9.3-11.4,13.1-17.7,3.4-5.6,6.3-11.4,7-18.1.3-2.8.2-5.5-.8-8.2-1.4-3.8-3.9-6.7-7.5-8.6,0,0,0,0,0,0,.1.1.2.3.4.4,6.9,4.6,8.9,11.1,7.3,18.9-1.7,7.9-5.8,14.7-10.5,21.2-7.9,11.1-17.2,21.1-26.4,31-6,6.4-12.2,12.7-17.5,19.8.6,0,.8-.5,1-.9Z"/>
    <path class="cls-2" d="M356.4,240.2s0,0,0,0c0-.2-.2-.3-.4-.2h0s0,0,0,0c.1.1.3,0,.4.2Z"/>
    <path class="cls-2" d="M356.4,240.2s0,0,0,0c0,0,0,0,0,0-.1-.1-.3,0-.4-.2,0,0,0,0,0,0,0,.2.2.3.4.2Z"/>
    <polygon class="cls-2" points="356.4 240.2 356.4 240.2 356.4 240.2 356.4 240.2"/>
    <path class="cls-2" d="M356.4,240.2s0,0,0,0h0s0,0,0,0Z"/>
    <path class="cls-2" d="M356.4,240.2h0s0,0,0,0c0,0,0,0,0,0Z"/>
    <path class="cls-2" d="M356.4,240.2s0,0,0,0c0,0,0,0,0,0,0,0,0,0,0,0Z"/>
    <path class="cls-2" d="M361.8,259.3c1.1-4.9.9-9.6-2.5-13.5-3.9-4.5-9.1-6.7-15-7.4.1,0,.2.2.4.3-6.3,1.3-11.4,4.7-16.1,8.9-6,5.3-10.8,11.6-15.2,18.5-.4-1.6-.3-3.2-.9-4.6,0,0,0,0,0,0h0c-1.3,1.5-2.2,3.3-3.2,5-.3.6-.6,1.1-1.4.9-.8-.2-.9-.8-.9-1.5-.3-2.7-.9-5.4-2.1-7.8-5.4-10.7-14.1-16.7-25.9-18.3-3.1-.4-6.3-.3-9.3.8.5.4,0,.5-.2.5-6.4,6.1-7.8,13.5-5.8,21.8,1.8,7.4,6.3,13.4,11.2,19.2,6.7,8,14.4,15,21.4,22.7,4.9,5.3,9.6,10.8,12.4,17.6.6,1.6,1.1,3.2,1.3,5,0,0,0,0,0,0,5-5.9,10.2-11.5,15.5-17.1,9.6-10.3,19.2-20.5,27.2-32.1,4-5.8,7.6-11.8,9.2-18.8Z"/>
    <path class="cls-2" d="M296.2,304.8c-7-7.7-14.7-14.7-21.4-22.7-4.8-5.7-9.3-11.7-11.2-19.2-2-8.2-.6-15.7,5.8-21.8,0,0,.7-.2.2-.5-1,.9-2,1.8-2.8,2.9-3.8,5.3-5.1,11.2-3.9,17.6,1,5.8,3.9,10.8,7.2,15.5,3.8,5.4,8.4,10.2,13,15.1,3.4,3.7,7.1,7.1,10.6,10.8,3.4,3.6,6.7,7.2,9.6,11.2,2.8,3.8,5.2,7.9,6.2,12.6,0,.4,0,.8.5,1-.2-1.7-.7-3.4-1.3-5-2.8-6.8-7.5-12.3-12.4-17.6Z"/>
    <path class="cls-2" d="M312.8,261.6c0-.1-.2-.1-.3-.1,0,0,0,0,0,0,.6,1.4.4,3,.9,4.6,4.4-6.8,9.2-13.1,15.2-18.5,4.7-4.2,9.8-7.6,16.1-8.9-.1-.1-.3-.2-.4-.3,0,0-.2.2-.3.2-3.9.8-7.3,2.5-10.5,4.7-3.7,2.5-6.9,5.5-9.9,8.8-3.8,4.2-7.3,8.7-10.1,13.4"/>
    <path class="cls-2" d="M296.2,243.9c5.3,3.9,9.2,8.7,11.6,14.8.4,1,.6,2,1,3.1,1.2-1.2,1.7-2.7,2.7-3.8,0,0,0,0,0,0,0,0,0,0,0-.2-3.1-7.6-8.5-13-15.7-16.8-4.9-2.6-10-4-15.5-3.7,1.8.3,3.6.7,5.3,1.2,3.8,1.2,7.4,3,10.6,5.4Z"/>
    <path class="cls-1" d="M288.7,240c7.8,3.5,13.9,8.7,17.7,16.4,1,2,1.7,4.2,2.3,6.5,1.1-1.7,2-3.2,3-4.7,0,0-.1-.2-.2-.2,0,0,0,0,0,0-1,1.2-1.5,2.7-2.7,3.8-.4-1.1-.6-2.2-1-3.1-2.4-6.1-6.3-11-11.6-14.8-3.3-2.4-6.8-4.2-10.6-5.4-1.7-.6-3.5-.9-5.3-1.2-.4,0-.8,0-1.2,0,3.3.6,6.5,1.2,9.5,2.6Z"/>
    <path class="cls-2" d="M312.6,261.2h0s0,.1,0,.1c0,0,0,0,0,0,0,0,0,0,0-.1Z"/>
    <path class="cls-2" d="M312.6,261.2h0s0,0,0,0c0,0,0,0,0,0h0s0,0,0,0Z"/>
  </g>
</svg>